<?xml version="1.0" encoding="UTF-8"?><svg xmlns="http://www.w3.org/2000/svg" viewBox="0 0 3000 3000"><defs><style>.cls-1{fill:#f3f8ff;}.cls-2{fill:#fff;}.cls-3{fill:#fffbf8;}.cls-4{fill:#f2bb95;}.cls-5{fill:#95d5b2;}.cls-6{fill:#e3894f;}.cls-7{fill:#d8f3dc;}.cls-8{fill:#212121;}.cls-9{fill:#40916c;}.cls-10{fill:#2d6a4f;}.cls-11{fill:#74c69d;}.cls-12,.cls-13{fill:none;stroke:#212121;stroke-miterlimit:10;stroke-width:5px;}.cls-13{stroke-linecap:round;}</style></defs><g id="Background"><rect class="cls-2" width="3000" height="3000"/></g><g id="Object"><path id="Object-2" class="cls-11" d="m4.8,3000c130.06-55.33,307.39-137.6,343.75-277.44,17.34-66.69,5.57-137.81-13.8-203.9-41.81-142.67-117.82-272.39-164.51-413.45-76.51-231.14-69.9-490.32,18.3-717.01,22.95-58.99,51.7-116.55,93.38-163.45,104.97-118.13,272.08-150.27,402.22-238,33.34-22.48,67.25-54.79,66.35-95.79-.53-23.95-13.13-45.67-26.07-65.59-37.18-57.26-80.39-110.37-128.63-158.12-22.97-22.74-47.73-45.15-60.9-75.02-33.59-76.16,21.26-163.13,84.09-216.24,104.77-88.56,236.22-136.24,367.01-173.1,265.72-74.89,541.46-112.1,816.97-110.25,154.19,1.04,310.44,14.72,455.41,68.75,74.63,27.81,148.45,68.73,193.18,136.17,77.76,117.23,45.65,278.66-18.05,404.53-63.7,125.88-155.8,237.44-199.24,372.12-14.95,46.36-23.5,98.39-4.39,143.11,29.91,69.97,112.11,94.34,182.84,117.79,167.16,55.43,330.67,160.04,401.69,325.24,50.54,117.55-100.29,261.36-95.47,389.79,8.34,222.12,215.99,163.78,226.28,455.24,3.93,111.31-42.86,385.51,49.97,494.6H4.8Z"/><g id="Leaf"><path class="cls-9" d="m1342.45,2672.22c10.68-50.06-14.55-117.86-58.92-158.54l-137.89-126.25c-37.27-34.17-61.83-88.43-61.33-135.7l.77-77.44c.51-48.24-25.03-103.63-63.41-137.57l-93.68-82.79c-43.24-38.19-69.46-102.82-62.28-153.32l5.99-41.97c8.84-62.14-32.63-142.41-88.88-171.92l-32.21-16.93c-50.6-26.56-90.34-95.17-90.04-155.43l.79-164.45c.14-28.22-8.51-58.4-23.01-85.2-15.59-28.8-37.93-53.72-63.35-68.26-58.62-33.51-98.45-120-83.15-180.56l48.66-192.41,185.59,60.7c32.75,10.73,63,40.71,82.68,77.07,15.42,28.49,24.34,60.84,22.8,90.93-2.88,57.27,32.51,125.32,81.29,156.31l136.89,87.04c50.17,31.89,85.91,102.75,80.96,160.54l-3.13,36.8c-5.51,64.24,38.98,142.81,95.26,168.33l38.02,17.23c45.74,20.74,85.39,77.83,94.02,135.48l18.74,124.92c7.7,51.19,40.04,102.77,80.35,128.05l64.68,40.65c39.5,24.78,71.42,74.9,79.9,125.26l31.26,186.2c10.05,59.97,52.86,117.89,100.1,135.39l-387.47,217.85Z"/><polygon class="cls-8" points="1490.83 2458.23 536.31 725.88 544.69 721.08 1499.2 2453.43 1490.83 2458.23"/><path class="cls-9" d="m1383.09,2747.97l-153.45-51.94c-41.49-14.08-78.59-49.51-92.7-88.66l-23.17-64.11c-14.4-39.95-52.67-75.94-95.01-89.42l-103.33-32.84c-47.69-15.14-89.36-58.49-98.91-102.83l-7.92-36.85c-11.75-54.55-70.9-105.04-126.74-108.1l-31.98-1.78c-50.23-2.77-104.37-44.3-122.64-94.08l-49.89-135.82c-8.56-23.31-25.02-44.91-45.32-61.52-21.81-17.85-48.05-29.94-73.65-32.32-59.04-5.46-118.74-61.7-124.63-117.38l-18.68-176.95,172.97-20.09c30.53-3.53,64.9,9.74,92.43,32.28,21.58,17.66,38.94,40.95,46.91,66.32,15.2,48.28,65.55,91,115.63,98.11l140.57,20.01c51.52,7.32,103.01,52.22,116.66,101.72l8.71,31.51c15.16,55.02,76.31,102.96,130.95,102.74l36.91-.17c44.41-.19,94.92,31.88,119.81,76.13l53.98,95.87c22.14,39.28,64.88,69.57,106.16,75.18l66.27,9.06c40.46,5.5,82.41,34.74,104.93,73.04l83.22,141.64c26.79,45.63,80.19,77.18,124.84,73.75l-232.11,269.05c-4.75-9.98-71.42-34.75-120.81-51.52Z"/><polygon class="cls-8" points="1543.64 2640.58 212.07 1557.18 218.05 1549.51 1549.61 2632.91 1543.64 2640.58"/></g><g id="Phone"><path class="cls-10" d="m2827.04,3000h-1169.6c-39.75,0-71.97-32.22-71.97-71.97V827.61c0-154.46,125.22-279.68,279.68-279.68h754.17c154.46,0,279.68,125.22,279.68,279.68v2100.42c0,39.75-32.22,71.97-71.97,71.97Z"/><path class="cls-7" d="m2841.93,830.71v1886.53c0,2.46-.05,4.91-.15,7.35-3.93,102.19-89.79,183.85-195.13,183.85h-808.81c-105.36,0-191.21-81.66-195.15-183.85-.1-2.44-.15-4.9-.15-7.35V830.71c0-105.61,87.44-191.22,195.3-191.22h808.81c107.85,0,195.28,85.61,195.28,191.22Z"/><path class="cls-10" d="m1946.76,623.89h590.95v83.81c0,12.5-10.15,22.65-22.65,22.65h-545.65c-12.5,0-22.65-10.15-22.65-22.65v-83.81h0Z"/><path class="cls-9" d="m2841.78,2724.59c-3.93,107.27-89.79,192.97-195.13,192.97h-808.81c-105.36,0-191.21-85.71-195.15-192.97h1199.09Z"/><path class="cls-8" d="m2067.73,1466.87h-336.8v-338.07h336.8v338.07Zm-46.98-48.4v-240.98h-241.61v240.98h241.61Z"/><path class="cls-8" d="m1730.46,2152.25v-338.87h337.74v338.87h-337.74Zm48.94-291.43v240.71h240.93v-240.71h-240.93Z"/><path class="cls-8" d="m2754.58,1128.2v337.86h-337.38v-337.86h337.38Zm-291.19,49.14v241.09h240.87v-241.09h-240.87Z"/><path class="cls-8" d="m2366.07,1515.57h-51.29c0,50.42,0,98.95,0,147.48,0,0,.74-.69.74-.69h-51.33v51.3l.69-.74c-32.27-.02-64.55-.03-96.82-.05l.72.72v-50.33h49.37v-146h45.98c0-17.43,0-32.25,0-47.08,16.44,0,32.87,0,49.38,0v-48.51h-48.66v49.23h-44.21v-101.34h93.29v-44.74h-48.93v-51.99l-.72.72h50.17v-49.55h50.9v292.3l.72-.72Z"/><path class="cls-8" d="m1972.15,1661.3c-14.24.74-28.49,1.48-45.41,2.36v98.45h-147.68v-47.99h-49.17v-196.36h195.01v47.93h46.58c0,33.22,0,64.81-.03,96.42-.03.03.71-.81.71-.81Zm-98.54-44.35h-50.26v-49.21h-43.25v93.21h93.51v-44Z"/><path class="cls-8" d="m2314.84,1956.55h50.33v48.81h95.68v-48.39h-48.01v-45.72h47.31v-50.8h-93.03v-49.85h44.69v-47l-.72.72c49.13,0,98.25.02,147.38.02l-.72-.72c0,15.38.02,30.77.03,46.15l.74-.69h-44.19v51.3h44.19l-.71-.71v51.3l.69-.74h-46.29v147.46l.74-.69h-51.33v46.24l.69-.74h-50.39v-43.8h-44.91v43.8h-52.18l.69.74c0-49.14,0-98.29,0-147.43l-.69.74Z"/><path class="cls-8" d="m2314.84,2102.5v49.34h-195.68v-194.45h100.28v-47.06l-.72.72h96.11c0,15.88,0,30.69,0,45.51,0,0,.69-.74.69-.74h-52.18v102.44h-93.29v44.99h145.47l-.69-.74Z"/><path class="cls-8" d="m2660.8,1714.49c-.75-15.94-1.51-31.87-2.39-50.54h-48.98v-45.83h-50.04v-51.99h-47.1l.72.72v-49.26h145.51v47.03h45.82v-47.27h49.27v99.14h-48.56v97.32c-16.78,0-30.9,0-45.05-.03-.03-.03.81.7.81.7Z"/><path class="cls-8" d="m2265,1272.83h-96.02v95.07h-49.29v-144.79h98.44v-44.17h46.15c0,31.17,0,62.89,0,94.61,0,0,.72-.72.72-.72Z"/><path class="cls-8" d="m2411.8,1763.6h-95.78v44.36h-95.78v-42.98h44.66c0-19.03,0-35.55,0-52.07,0,0-.69.74-.69.74h51.33v-51.3s-.74.69-.74.69c15.81,0,31.62,0,49.99,0v49.52h46.3c0,18.89,0,35.32,0,51.75,0,0,.72-.72.72-.72Z"/><path class="cls-8" d="m2557.77,1809.78h99.8v144.63h-99.07c0-14.63,0-29.4,0-44.17,0,0-.69.74-.69.74h49.23v-51.3h-49.23l.71.71v-51.3l-.74.69Z"/><path class="cls-8" d="m2168.08,1712.86v94.88h-49.37v-42.67h-96.75v-52.11l-.74.69h51.33v-51.3l-.69.74h45.06v50.49c18.92,0,35.4,0,51.88,0,0,0-.72-.72-.72-.72Z"/><path class="cls-8" d="m2512.21,2057.69h94.81v44.93h-48.2v49.03h-96.5c0-16.17,0-32.66,0-49.15,0,0-.69.74-.69.74h51.33v-46.24l-.74.69Z"/><path class="cls-8" d="m2166.95,1615.94h-47.33v-98.27h47.33v98.27Z"/><path class="cls-8" d="m2558.46,1764.34v-49.91c34.58,0,68.43,0,102.32.03.03.03-.8-.71-.77-.68.03,15.78.03,31.53.03,49.84-35.75,0-69.02,0-102.29,0,0,0,.72.72.72.72Z"/><path class="cls-8" d="m2512.3,1566.14v94.68h-48.67v-93.96c16.48,0,32.93,0,49.38,0,0,0-.72-.72-.72-.72Z"/><path class="cls-8" d="m2365.36,1516.29h44.27v99.21h-43.55c0-33.42,0-66.67,0-99.93,0,0-.72.72-.72.72Z"/><path class="cls-8" d="m2119.47,1127.55h47.64v47.51h-47.64v-47.51Z"/><path class="cls-8" d="m2363.73,1176.5h-46.63v-48.41h46.63v48.41Z"/><path class="cls-8" d="m2167,1469.29h-47.42v-47.84h47.42v47.84Z"/><path class="cls-8" d="m2022.86,1517.04h47.61v48.04h-47.61v-48.04Z"/><path class="cls-8" d="m2021.97,1712.97h-49.87c0-17.6,0-34.6.03-51.63.03-.03-.71.8-.68.77,16.84.31,33.66.65,50.48.99l-.69-.74v51.3l.74-.69Z"/><path class="cls-8" d="m2219.44,1910.33h-49.26v-48.64h48.53c0,16.5,0,32.93,0,49.36,0,0,.72-.72.72-.72Z"/><path class="cls-8" d="m2706.01,1909.35v-47.59h48.06v47.59h-48.06Z"/><path class="cls-8" d="m2021.92,1663.1v-44.2h49.94c0,14.66,0,29.43,0,44.2,0,0,.69-.74.69-.74h-51.33l.69.74Z"/><path class="cls-8" d="m2706.47,1764.37h47.13v43.34h-47.13v-43.34Z"/><path class="cls-8" d="m2704.47,2059.41v41.57h-43.38v-41.57h43.38Z"/><path class="cls-8" d="m1971.13,1226.23v143.11h-143.51v-143.11h143.51Z"/><path class="cls-8" d="m1971.17,1911.08v143h-143.53v-143h143.53Z"/><path class="cls-8" d="m2512.5,1225.31h143.22v144.1h-143.22v-144.1Z"/><rect class="cls-10" x="1729.89" y="2328.79" width="757.74" height="28.82"/><path class="cls-10" d="m2706.97,2360.11h-979.58v-33.82h979.58v33.82Zm-974.58-5h969.58v-23.82h-969.58v23.82Z"/><ellipse class="cls-7" cx="2242.24" cy="647.8" rx="24.43" ry="23.92"/><ellipse class="cls-7" cx="2242.23" cy="2816.51" rx="70.72" ry="69.24"/></g><g id="Character"><path class="cls-8" d="m1201.45,955.9l265.9,19.96s283.65,761.58,135.26,851.25c0,0-30.3,34.03-74.19,48.87,0,0,34.01-58.12,33.39-77.29,0,0-47.61,80.38-90.27,77.29,0,0,18.55-32.77,16.69-90.27,0,0-20.4,76.67-48.84,79.14,0,0,12.98-43.9,5.56-58.12,0,0-24.11,68.01-97.69,43.28l-145.8-894.12Z"/><path class="cls-8" d="m797.38,975.87s-277.47,685.85-86.61,911.9c0,0-16.84-63.31-9.62-78.97,0,0,9.62,77,52.93,90.44l-9.62-64.06s27.14,79.68,85,81.8c0,0-28.87-62.83-20.85-85.92,0,0,3.76,71.16,74.05,71.65,0,0-18.72-45.27-15.11-68.76,0,0,16.1,63.07,50.15,74.19l-.89-48.72s17.75,48.72,53.41,48.72l-8.98-48.72,63.88,43.29-100.6-946.8-127.14,19.96Z"/><path class="cls-5" d="m852.08,2018.56l-410.05,101.59-212.07,879.85h1817.41l-105.17-667.79c-25.06-110.59-58.06-200.52-217.99-246.09l-275.69-67.56h-596.43Z"/><path class="cls-4" d="m223.04,1859.41l37.87,153.53-38.68,6.8-12.9,81.96,89.96,188.31-44.98,207.51s84.58,77.96,204.52,20.39l80.36-236,95.96-132.24,32.39-169.12-74.37,13.88-235.09-53.45-29.99-69.54-105.04-12.04Z"/><path class="cls-4" d="m270.91,1862.34s-43.27-230.55,6.98-229.91c41.86.53,41.29,206.41,41.29,206.41l-48.27,23.5Z"/><polygon class="cls-4" points="1400.57 1506.93 1395.14 1971.04 1031.32 2185.06 878.67 2011.57 981.38 1969.5 971.91 1741.97 1400.57 1506.93"/><path class="cls-8" d="m973.61,1807.83s165.47,29.23,318.44-87.42c0,0-73.15,239.08-314.22,250.55l-4.22-163.12Z"/><ellipse class="cls-4" cx="1083.07" cy="1391.51" rx="435.99" ry="332.16" transform="translate(-376.15 2381.48) rotate(-86.26)"/><ellipse class="cls-8" cx="1166.94" cy="1363.24" rx="34.51" ry="53.02"/><ellipse class="cls-8" cx="914.69" cy="1363.24" rx="34.51" ry="53.02"/><path class="cls-8" d="m1124.9,1312.92l-4.71-5.4c46.11-40.22,90.91-.36,91.36.05l-4.82,5.3c-1.64-1.49-40.59-35.94-81.83.05Z"/><path class="cls-8" d="m872.8,1312.92l-4.71-5.4c46.11-40.22,90.91-.36,91.36.05l-4.82,5.3c-1.63-1.49-40.59-35.92-81.83.05Z"/><path class="cls-8" d="m1244.75,1279.66s-73.06-24.22-127.25-18.89c-12.87,1.27-24.27-6.98-24.27-18.01h0c0-10.49,10.36-18.8,22.66-18.15,38.27,2.02,113.1,11.58,128.86,55.05Z"/><path class="cls-8" d="m821.99,1279.66s71.53-24.22,124.58-18.89c12.6,1.27,23.77-6.98,23.77-18.01h0c0-10.49-10.14-18.8-22.18-18.15-37.47,2.02-110.73,11.58-126.16,55.05Z"/><path class="cls-3" d="m921.7,1598.11s76.79,36.39,188.87,0c0,0-91.32,155.62-188.87,0Z"/><ellipse class="cls-6" cx="1159.07" cy="1495.88" rx="58.18" ry="37.26"/><ellipse class="cls-6" cx="827.94" cy="1493.06" rx="53.79" ry="34.45"/><polygon class="cls-8" points="980.65 1517.43 932.9 1460.55 980.27 1453.24 997.38 1347.94 1004.46 1349.09 986.52 1459.53 946.57 1465.69 986.14 1512.82 980.65 1517.43"/><path class="cls-4" d="m1342.12,1413.47c-3.85,58.91,28.15,94.37,80.05,97.76,51.9,3.39,97.09-41.61,100.95-100.52,3.85-58.91-35.1-109.42-87-112.81-51.9-3.39-90.14,56.67-94,115.58Z"/><path class="cls-6" d="m1461.83,1335.78s34.96,108.09-71.13,89.71c0,0-19.97-95.14,71.13-89.71Z"/><path class="cls-8" d="m1388.16,1432.43c-6.74-38.82-1.12-66.99,16.71-83.73,26.58-24.94,69.9-14.93,71.73-14.49l-1.67,6.97c-.41-.1-41.46-9.54-65.19,12.77-15.94,14.99-20.83,40.98-14.53,77.26l-7.06,1.23Z"/><rect class="cls-8" x="297.47" y="1602.95" width="320.59" height="592.57" rx="42.64" ry="42.64" transform="translate(243.87 -42.64) rotate(7.27)"/><rect class="cls-3" x="326.66" y="1650.94" width="264.33" height="480.01" rx="5.34" ry="5.34" transform="translate(242.83 -42.84) rotate(7.27)"/><circle class="cls-3" cx="417.44" cy="2158.11" r="17.65"/><path class="cls-4" d="m223.13,2032.14l47.78,39.18s46.38,87.96,79.16,60.37l-36.98-92.36-52.18-44.38s-45.58-7.8-37.78,37.18Z"/><path class="cls-12" d="m260.91,1994.95l52.18,44.38,36.98,92.36s-27.19-1-21.39-44.58"/><path class="cls-4" d="m223.04,1859.41l43.75,24.39s50.35,22.79,41.27-29.19c0,0-32.6-27.59-52.41-28.79-18.9-1.14-37.56,8.4-32.6,33.58Z"/><path class="cls-12" d="m232.9,1830.9s13.46-9.5,35.13-1.89c21.67,7.61,40.02,25.6,40.02,25.6,0,0,0,20.56-29.15,8.11-23.13-9.88-4.8-26.1-4.8-26.1"/><path class="cls-4" d="m667.52,1980.56s-33.53-65.25-39.77-124.58c-.62-5.93-8.24-7.92-11.78-3.12-14.32,19.43-34.83,63.59-8.4,138.89l59.95-11.19Z"/><path class="cls-12" d="m667.52,1980.56s-37.58-76.22-40.59-127.17c0,0-19.38,40.01,6.61,56.8"/><path class="cls-12" d="m303.42,1883.57s-22.53,17.05-68.46-17.5"/><path class="cls-12" d="m235.51,2042.29l35.39,29.02s27.49,46.9,46.33,58.63"/><path class="cls-12" d="m266.86,2068s-6.76,12.51-31.35,10.91"/><path class="cls-12" d="m282.5,1888.2s-8.8,15.99-36.78,14.39"/><path class="cls-7" d="m1031.32,2185.06l95.64-178.16c6.37-12.54,16.67-21.79,28.78-25.85l251.48-84.28c17.23-5.78,34.69,8.28,35.89,28.89l5.4,92.91-417.19,166.49Z"/><path class="cls-7" d="m1031.32,2185.06l-4.35-161.97c-.31-11.39-3.36-20.58-8.54-25.67l-107.5-105.8c-7.37-7.25-19.45,2.07-24.84,19.16l-34.01,107.8,179.24,166.49Z"/><path class="cls-1" d="m208.93,2465.19l10.9-119.87,152.42,53.39,6.8,66.48,40.82-51.75h129.28l-68.06,95.97s-113.99,118.03-272.17-44.21Z"/><path class="cls-5" d="m199.78,2441.74c-.15-5.04,6.14-7.43,9.32-3.52,31.43,38.7,127.49,131.5,281.34,57.43,11.03-5.31,22.2,7.01,15.81,17.45-40.61,66.38-26.28,486.9-26.28,486.9H29.27s172.76-482.37,170.51-558.26Z"/><path class="cls-8" d="m1412.72,1316.84s-26.04-428.05-329.65-381.88c0,0-167.49,14.69-186.92,55.16h0c-152.06,89.44-148.44,323.38-148.44,323.38,66.7,30.69,107.37-159.98,107.37-159.98-12.9,85-52.01,150.6-52.01,150.6,68.78-5.2,130.86-172.18,130.86-172.18-6.02,41.63-76.51,151.78-76.51,151.78l121.22-14.74c93.71-9.54,82.9-117.1,82.9-117.1,8.81,32.96-3.8,108.43-3.8,108.43,94.5-1.33,89-178.09,89-178.09,3.43-24.69,2.26-44.46-1.6-60.28,6.82,26.21,57.6,213.87,117.4,230.19,0,0-36.27-86.33-36.27-181.96,0,0,66.23,236.16,186.45,246.68Zm-268.36-297.94h0s.01.06.04.17c-.02-.06-.03-.11-.05-.17Z"/><path class="cls-7" d="m746.39,1117.56c46.81-38.84,311.05-228.42,771.47,3.97,2.76,1.4,6.12.02,7.09-2.92,15.89-48.37,112.12-396.71-414.38-388.1-456.04,7.46-391.23,323.41-374.68,383.75,1.26,4.59,6.83,6.35,10.49,3.31Z"/><path class="cls-13" d="m738.24,1075.92s317.71-242.78,785.13,5.77"/><line class="cls-12" x1="1628.57" y1="2328.16" x2="1645.57" y2="3000"/><path class="cls-12" d="m792.65,2052.82s66.12,185.49,223.49,207.74c157.37,22.26,495.37-191.09,495.37-191.09"/><line class="cls-12" x1="807.4" y1="2086.12" x2="866.84" y2="2052.82"/><line class="cls-12" x1="844.08" y1="2146.57" x2="906.41" y2="2102.28"/><line class="cls-12" x1="897.76" y1="2205.28" x2="949.28" y2="2146.57"/><line class="cls-12" x1="984.93" y1="2253.76" x2="1016.14" y2="2185.06"/><line class="cls-12" x1="1132.83" y1="2248.43" x2="1110.58" y2="2175.92"/><line class="cls-12" x1="1237.04" y1="2212.17" x2="1201.45" y2="2157.54"/><line class="cls-12" x1="1333.85" y1="2167.37" x2="1279.03" y2="2117.12"/><line class="cls-12" x1="1415.77" y1="2123.42" x2="1377.96" y2="2086.12"/><line class="cls-12" x1="1478.83" y1="2086.12" x2="1432.59" y2="2052.82"/><path class="cls-12" d="m490.44,2495.65s27.99-8.7,12.05,24.96c-15.94,33.66-33.92,182.18-22.52,479.39"/><path class="cls-12" d="m142.93,2664.08s169.81,154.55,336.04,34.19"/><path class="cls-12" d="m158.94,2676.99s64.17-166.14,63.29-223.89"/><path class="cls-12" d="m209.33,2708.71s38.03-100.87,51.58-222.56"/><line class="cls-12" x1="286.15" y1="2737.62" x2="322.65" y2="2515.66"/><path class="cls-12" d="m372.29,2742.14s10.57-183,20.71-219.14"/><path class="cls-12" d="m447.01,2718.14s-6.49-164.17,10.67-208.85"/><polyline class="cls-12" points="382.64 2523.46 372.25 2398.71 294.04 2371.31 219.83 2345.32 212.07 2441.81"/><polyline class="cls-12" points="379.05 2465.19 419.88 2413.44 549.15 2413.44"/><ellipse class="cls-12" cx="336.36" cy="2426.52" rx="13.71" ry="20.87"/><path class="cls-8" d="m359.05,1841.11c-3.2-1.81-5.64-4.21-7.31-7.18-1.68-2.97-2.32-6.37-1.95-10.21l15.11,1.93c-.05,2.19.48,3.93,1.61,5.23,1.13,1.3,2.72,2.08,4.77,2.34s3.83,0,5.17-.82c1.34-.81,2.12-2.08,2.34-3.79.18-1.44-.15-2.69-1-3.76-.85-1.06-1.94-1.99-3.27-2.78-1.33-.79-3.25-1.74-5.76-2.84-3.62-1.64-6.54-3.2-8.77-4.66-2.23-1.47-4.06-3.44-5.49-5.93-1.43-2.49-1.91-5.56-1.44-9.21.69-5.43,3.2-9.42,7.52-12,4.32-2.57,9.64-3.45,15.95-2.65,6.42.82,11.4,3.01,14.94,6.59,3.54,3.57,5.1,8.12,4.67,13.63l-15.36-1.96c.13-1.9-.37-3.47-1.51-4.71-1.14-1.24-2.7-1.99-4.69-2.24-1.72-.22-3.16.06-4.33.84-1.17.78-1.86,2.03-2.08,3.74-.24,1.88.46,3.46,2.1,4.74,1.64,1.28,4.26,2.77,7.87,4.46,3.6,1.75,6.5,3.36,8.71,4.82,2.2,1.46,4.02,3.41,5.46,5.84,1.43,2.43,1.93,5.39,1.48,8.88s-1.65,6.23-3.69,8.73c-2.04,2.5-4.76,4.34-8.17,5.54-3.42,1.2-7.31,1.51-11.68.96-4.26-.54-8-1.72-11.19-3.54Z"/><path class="cls-8" d="m407.31,1803.42c3.07-4.19,6.99-7.27,11.77-9.22,4.78-1.95,9.99-2.57,15.64-1.85,6.92.88,12.61,3.46,17.07,7.75,4.46,4.28,7.12,9.68,7.98,16.21l-15.61-1.99c-.85-2.58-2.26-4.65-4.23-6.19-1.97-1.55-4.31-2.49-7.02-2.84-4.37-.56-8.11.51-11.21,3.21-3.1,2.7-4.98,6.6-5.62,11.69s.19,9.34,2.51,12.73c2.32,3.39,5.67,5.36,10.05,5.92,2.71.35,5.22.02,7.51-.98,2.29-1,4.18-2.65,5.65-4.93l15.61,1.99c-2.47,6.1-6.39,10.65-11.78,13.65-5.39,3-11.54,4.06-18.46,3.17-5.65-.72-10.54-2.62-14.67-5.71-4.14-3.09-7.16-7.03-9.08-11.83s-2.51-10.08-1.78-15.84,2.63-10.73,5.7-14.93Z"/><path class="cls-8" d="m501.16,1850.28l-21.76-2.77-4.8,9.85-14.86-1.89,28.52-55.6,16.44,2.1,13.66,60.98-15.03-1.92-2.17-10.74Zm-2.26-11.43l-4.5-22.26-9.86,20.43,14.37,1.83Z"/><path class="cls-8" d="m576.91,1870.4l-14.2-1.81-19.16-38.98-4.58,35.95-14.2-1.81,7.43-58.29,14.2,1.81,19.14,39.15,4.61-36.12,14.2,1.81-7.43,58.29Z"/><path class="cls-8" d="m394.81,1889.21l-7.43,58.29-14.2-1.81,3.06-24-22.09-2.82-3.06,24-14.2-1.81,7.43-58.29,14.2,1.81-2.91,22.83,22.09,2.82,2.91-22.83,14.2,1.81Z"/><path class="cls-8" d="m417.77,1903.7l-1.5,11.79,19.01,2.42-1.4,10.96-19.01-2.42-1.63,12.79,21.51,2.74-1.45,11.38-35.71-4.55,7.43-58.29,35.71,4.55-1.45,11.38-21.51-2.74Z"/><path class="cls-8" d="m472.24,1958.32l-9.32-23.55-3.4-.43-2.81,22-14.2-1.81,7.43-58.29,23.83,3.04c4.59.59,8.41,1.89,11.44,3.91,3.03,2.02,5.17,4.53,6.42,7.53,1.25,3,1.65,6.22,1.22,9.65-.49,3.88-2.03,7.2-4.6,9.96-2.58,2.77-6.07,4.51-10.5,5.24l10.51,24.8-16.03-2.04Zm-11.44-34.03l8.8,1.12c2.6.33,4.63-.06,6.1-1.16,1.46-1.11,2.34-2.82,2.64-5.15s-.15-4.04-1.28-5.48c-1.14-1.44-3.01-2.33-5.61-2.66l-8.8-1.12-1.84,14.45Z"/><path class="cls-8" d="m516.83,1916.33l-1.5,11.79,19.01,2.42-1.4,10.96-19.01-2.42-1.63,12.79,21.51,2.74-1.45,11.38-35.71-4.55,7.43-58.29,35.71,4.55-1.45,11.38-21.51-2.74Z"/><path class="cls-8" d="m546.88,1966.28c-1.39-1.67-1.95-3.58-1.67-5.74s1.31-3.97,3.08-5.26c1.77-1.29,3.9-1.78,6.39-1.46,2.44.31,4.35,1.31,5.73,3.01,1.39,1.7,1.94,3.65,1.66,5.86-.28,2.16-1.3,3.87-3.06,5.14-1.77,1.27-3.87,1.74-6.3,1.43-2.49-.32-4.43-1.31-5.82-2.98Zm21.08-57.1l-6.73,39.56-12.04-1.53,3.41-39.99,15.36,1.96Z"/></g></g></svg>